<svg xmlns="http://www.w3.org/2000/svg" viewBox="0 0 202.94 216.71">
  <g id="robots">
    <g>
      <rect x="165.73" y="60.5" width="13.43" height="64.02" transform="translate(37.07 -48.8) rotate(18.02)" fill="#34465d"/>
      <circle cx="158.36" cy="124.85" r="19.4" fill="#97b1c0"/>
      <circle cx="184.46" cy="32.76" r="16.63" fill="#97b1c0"/>
      <path d="M195.12,67.1c-.86,4.78-4.84,7.9-9.05,7.1L170.8,71.26c-4.22-.81-7.16-5.28-6.68-10.15l3-30.31,32.1,13.26Z" fill="#bad5e8"/>
    </g>
    <g>
      <rect x="21.29" y="63.28" width="13.43" height="64.02" transform="translate(82.73 178.17) rotate(162.94)" fill="#34465d"/>
      <circle cx="41.54" cy="127.86" r="19.4" fill="#97b1c0"/>
      <circle cx="16.99" cy="35.34" r="16.63" fill="#97b1c0"/>
      <path d="M5.76,69.5c.77,4.79,4.71,8,8.93,7.25L30,74.07c4.23-.74,7.25-5.16,6.84-10L34.34,33.68,2,46.4Z" fill="#bad5e8"/>
    </g>
    <rect x="92.44" y="100.05" width="18.65" height="7.48" fill="#34465d"/>
    <path d="M82.17,107H121a3.86,3.86,0,0,1,3.86,3.86v2.45a0,0,0,0,1,0,0H78.67a0,0,0,0,1,0,0v-2.8A3.5,3.5,0,0,1,82.17,107Z" fill="#34465d"/>
    <path d="M83.62.5h35.78A5.46,5.46,0,0,1,124.86,6v7.16a0,0,0,0,1,0,0H78.67a0,0,0,0,1,0,0V5.45A5,5,0,0,1,83.62.5Z" fill="#34465d"/>
    <path d="M176.86,54.21a35.48,35.48,0,0,0-1.25-9.33C172.18,24.17,140.44,8,101.76,8S31.35,24.18,27.92,44.88a35.48,35.48,0,0,0-1.25,9.33h0c0,.35,0,.71,0,1.06s0,.71,0,1.07h0a35.41,35.41,0,0,0,1.25,9.32c3.43,20.71,35.16,36.93,73.84,36.93s70.42-16.22,73.85-36.93a35.41,35.41,0,0,0,1.25-9.32h0c0-.36,0-.71,0-1.07s0-.71,0-1.06Z" fill="#bad5e8"/>
    <path d="M11.57,50.35H39.5a4.26,4.26,0,0,1,4.26,4.26V60.2a0,0,0,0,1,0,0H7.7a0,0,0,0,1,0,0v-6A3.87,3.87,0,0,1,11.57,50.35Z" transform="translate(-29.54 81) rotate(-90)" fill="#34465d"/>
    <path d="M159.83,50.12h36.06a0,0,0,0,1,0,0v5.59A4.26,4.26,0,0,1,191.63,60H163.7a3.87,3.87,0,0,1-3.87-3.87v-6A0,0,0,0,1,159.83,50.12Z" transform="translate(122.82 232.91) rotate(-90)" fill="#34465d"/>
    <rect x="71" y="187.61" width="61.52" height="29.1" fill="#34465d"/>
    <path d="M64,110.11h75.54a25.49,25.49,0,0,1,25.49,25.49V147a47.44,47.44,0,0,1-47.44,47.44H85.9A47.44,47.44,0,0,1,38.46,147V135.69A25.58,25.58,0,0,1,64,110.11Z" fill="#bad5e8"/>
    <g>
      <path d="M77.16,144.68a9.29,9.29,0,0,1-.22,2.15,5.3,5.3,0,0,1-.69,1.67,4.86,4.86,0,0,1-1.18,1.3,9,9,0,0,1-1.68,1,.46.46,0,0,0-.1.07.56.56,0,0,1-.14.1l-5.58,0-1.92-2.94V158H61V138.22h10.6a4.77,4.77,0,0,1,2.21.53,5.63,5.63,0,0,1,1.76,1.42,6.61,6.61,0,0,1,1.17,2.06A7,7,0,0,1,77.16,144.68Zm-4.43.17a2.12,2.12,0,0,0-.55-1.43,1.69,1.69,0,0,0-1.33-.61H65.62v4.07h5.43a1.2,1.2,0,0,0,.63-.2,2.5,2.5,0,0,0,.54-.49,2.38,2.38,0,0,0,.37-.66A1.92,1.92,0,0,0,72.73,144.85Z" fill="#34465d"/>
      <path d="M93.22,138.22,91,142.83H83.5v2.89h7.55v4.61H83.5v3h8.71V158H78.6V138.22Z" fill="#34465d"/>
      <path d="M111.05,138.22l-2.27,4.56h-4.32V158H99.75V142.78H94.48v-4.56Z" fill="#34465d"/>
      <path d="M126.61,138.22l-2.2,4.61h-7.52v2.89h7.55v4.61h-7.55v3h8.71V158H112V138.22Z" fill="#34465d"/>
      <path d="M144.32,158H139l-6.48-9.89V158h-4.66V138.22h10.6a4.77,4.77,0,0,1,2.21.53,5.63,5.63,0,0,1,1.76,1.42,7.12,7.12,0,0,1,1.6,4.51,9.29,9.29,0,0,1-.22,2.15,5.54,5.54,0,0,1-.69,1.67,5,5,0,0,1-1.18,1.3,9,9,0,0,1-1.68,1,.46.46,0,0,0-.1.07.48.48,0,0,1-.15.1Zm-4.72-13.1a2.11,2.11,0,0,0-.54-1.43,1.69,1.69,0,0,0-1.33-.61H132.5v4.07h5.43a1.2,1.2,0,0,0,.63-.2,2.5,2.5,0,0,0,.54-.49,2.38,2.38,0,0,0,.37-.66A1.9,1.9,0,0,0,139.6,144.85Z" fill="#34465d"/>
    </g>
    <rect x="83.44" y="165.97" width="36.64" height="18.72" rx="1.68" fill="#d2e5f3"/>
    <circle cx="112.31" cy="172.28" r="2.74" fill="#63b6b4"/>
    <circle cx="112.31" cy="178.39" r="2.74" fill="#f7931e"/>
    <rect x="88.7" y="170.34" width="16.87" height="1.87" fill="#34465d"/>
    <rect x="88.7" y="174.14" width="16.87" height="1.87" fill="#34465d"/>
    <rect x="88.7" y="177.85" width="16.87" height="1.87" fill="#34465d"/>
    <rect id="eye_display" x="52.64" y="29.9" width="97.94" height="50.29" rx="19.63" fill="#1a2136"/>
  </g>
</svg>
