<svg xmlns="http://www.w3.org/2000/svg" viewBox="0 0 202.94 216.71">
  <g id="robots">
    <g id="jonas">
      <rect x="92.44" y="100.05" width="18.65" height="7.48" fill="#34465d"/>
      <path d="M82.17,107H121a3.86,3.86,0,0,1,3.86,3.86v2.45a0,0,0,0,1,0,0H78.67a0,0,0,0,1,0,0v-2.8A3.5,3.5,0,0,1,82.17,107Z" fill="#34465d"/>
      <path d="M83.62.5h35.78A5.46,5.46,0,0,1,124.86,6v7.16a0,0,0,0,1,0,0H78.67a0,0,0,0,1,0,0V5.45A5,5,0,0,1,83.62.5Z" fill="#34465d"/>
      <path d="M176.86,54.21a35.48,35.48,0,0,0-1.25-9.33C172.18,24.17,140.44,8,101.76,8S31.35,24.18,27.92,44.88a35.48,35.48,0,0,0-1.25,9.33h0c0,.35,0,.71,0,1.06s0,.71,0,1.07h0a35.41,35.41,0,0,0,1.25,9.32c3.43,20.71,35.16,36.93,73.84,36.93s70.42-16.22,73.85-36.93a35.41,35.41,0,0,0,1.25-9.32h0c0-.36,0-.71,0-1.07s0-.71,0-1.06Z" fill="#bad5e8"/>
      <rect x="166.22" y="127.58" width="13.43" height="64.02" transform="translate(-35.25 49.88) rotate(-14.91)" fill="#34465d"/>
      <rect x="23.29" y="127.58" width="13.43" height="64.02" transform="matrix(-0.97, -0.26, 0.26, -0.97, 17.92, 321.53)" fill="#34465d"/>
      <path d="M11.57,50.35H39.5a4.26,4.26,0,0,1,4.26,4.26V60.2a0,0,0,0,1,0,0H7.7a0,0,0,0,1,0,0v-6A3.87,3.87,0,0,1,11.57,50.35Z" transform="translate(-29.54 81) rotate(-90)" fill="#34465d"/>
      <circle cx="158.46" cy="126.93" r="19.4" fill="#97b1c0"/>
      <circle cx="42.59" cy="126.93" r="19.4" fill="#97b1c0"/>
      <path d="M159.83,50.12h36.06a0,0,0,0,1,0,0v5.59A4.26,4.26,0,0,1,191.63,60H163.7a3.87,3.87,0,0,1-3.87-3.87v-6A0,0,0,0,1,159.83,50.12Z" transform="translate(122.82 232.91) rotate(-90)" fill="#34465d"/>
      <rect x="71" y="187.61" width="61.52" height="29.1" fill="#34465d"/>
      <path d="M64,110.11h75.54a25.49,25.49,0,0,1,25.49,25.49V147a47.44,47.44,0,0,1-47.44,47.44H85.9A47.44,47.44,0,0,1,38.46,147V135.69A25.58,25.58,0,0,1,64,110.11Z" fill="#bad5e8"/>
      <g>
        <path d="M195.45,188.87c-1.25-4.68-5.17-7.69-8.9-6.83l-13.5,3.12c-3.72.86-5.93,5.27-5,10l4.15,21.54h30.68Z" fill="#bad5e8"/>
        <path d="M35.26,193.84c.92-4.75-1.29-9.16-5-10l-13.5-3.11c-3.73-.87-7.66,2.15-8.9,6.83L.07,216.71H30.84Z" fill="#bad5e8"/>
      </g>
      <g>
        <path d="M69.28,150.72a5,5,0,0,1-.47,1.7c-1.11,2.87-2.84,4.58-5.17,5.13-.56.14-1,.23-1.37.3a4.46,4.46,0,0,1-.76.1H58v-4.64h3a3,3,0,0,0,2.69-1.38,6.76,6.76,0,0,0,.91-3.77v-9.94h4.66Z" fill="#34465d"/>
        <path d="M89,148.06a12,12,0,0,1-.63,4,9.2,9.2,0,0,1-1.8,3.13,8.18,8.18,0,0,1-2.8,2.06,8.68,8.68,0,0,1-3.62.74,9,9,0,0,1-3.65-.72,8.1,8.1,0,0,1-2.84-2,9.17,9.17,0,0,1-1.83-3.11,11.52,11.52,0,0,1-.66-4,11.27,11.27,0,0,1,.67-4A9.19,9.19,0,0,1,73.66,141a8.56,8.56,0,0,1,2.87-2,9.09,9.09,0,0,1,3.68-.74,8.6,8.6,0,0,1,3.59.74A8.13,8.13,0,0,1,86.56,141a9.54,9.54,0,0,1,1.77,3.12A11.8,11.8,0,0,1,89,148.06Zm-4.34.05A7,7,0,0,0,84.3,146a5.33,5.33,0,0,0-.91-1.74A4.27,4.27,0,0,0,82,143.07a3.75,3.75,0,0,0-1.8-.44,4.1,4.1,0,0,0-1.83.41,4,4,0,0,0-1.41,1.15,5.3,5.3,0,0,0-.89,1.76,7.91,7.91,0,0,0-.31,2.23,7,7,0,0,0,.32,2.15A5.56,5.56,0,0,0,77,152a4.26,4.26,0,0,0,1.39,1.15,3.72,3.72,0,0,0,1.76.42,4,4,0,0,0,1.82-.43A4.39,4.39,0,0,0,83.36,152a5.58,5.58,0,0,0,.93-1.74A6.88,6.88,0,0,0,84.62,148.11Z" fill="#34465d"/>
        <path d="M108.27,158H103l-7.5-11.81V158H90.66V138.22h5.45l7.3,11.84V138.22h4.86Z" fill="#34465d"/>
        <path d="M128.32,158h-4.93l-1.19-3.58H119l-1.55-3.28L115.18,158h-4.94l6.59-19.73h4.93Zm-7.67-8.21-1.36-4.12-1.38,4.12Z" fill="#34465d"/>
        <path d="M145.9,151.76a7.85,7.85,0,0,1-.39,2.55,5.62,5.62,0,0,1-1.12,2,4.91,4.91,0,0,1-1.78,1.25,6.09,6.09,0,0,1-2.36.43h-10.6v-4.44h9.84a2.21,2.21,0,0,0,1.39-.41,1.33,1.33,0,0,0,0-2.09,2.46,2.46,0,0,0-1.43-.53l-.44,0h-2.69a15.24,15.24,0,0,1-2.33-.15,6.52,6.52,0,0,1-1.62-.45,3.42,3.42,0,0,1-1.11-.82,6.15,6.15,0,0,1-.81-1.22,7.11,7.11,0,0,1-.84-3.52,7.31,7.31,0,0,1,.4-2.49,5.38,5.38,0,0,1,1.12-1.94,5.08,5.08,0,0,1,1.76-1.25,5.88,5.88,0,0,1,2.29-.44H145.9l-2.19,4.64-7.94-.05q-1.68,0-1.68,1.53a1.36,1.36,0,0,0,.51,1.09,1.72,1.72,0,0,0,1.17.44h4.48Q145.91,145.87,145.9,151.76Z" fill="#34465d"/>
      </g>
      <rect x="83.44" y="165.97" width="36.64" height="18.72" rx="1.68" fill="#d2e5f3"/>
      <circle cx="112.31" cy="172.28" r="2.74" fill="#63b6b4"/>
      <circle cx="112.31" cy="178.39" r="2.74" fill="#f7931e"/>
      <rect x="88.7" y="170.34" width="16.87" height="1.87" fill="#34465d"/>
      <rect x="88.7" y="174.14" width="16.87" height="1.87" fill="#34465d"/>
      <rect x="88.7" y="177.85" width="16.87" height="1.87" fill="#34465d"/>
      <rect id="eye_display" x="52.64" y="29.9" width="97.94" height="50.29" rx="19.63" fill="#1a2136"/>
    </g>
  </g>
</svg>
