<svg xmlns="http://www.w3.org/2000/svg" viewBox="0 0 202.94 216.71">
  <g id="robots">
    <g id="moving_left">
      <rect x="92.44" y="100.05" width="18.65" height="7.48" fill="#34465d"/>
      <path d="M82.17,107H121a3.86,3.86,0,0,1,3.86,3.86v2.45a0,0,0,0,1,0,0H78.67a0,0,0,0,1,0,0v-2.8A3.5,3.5,0,0,1,82.17,107Z" fill="#34465d"/>
      <rect x="68.18" y="129.55" width="13.43" height="64.02" transform="matrix(-0.97, -0.26, 0.26, -0.97, 105.69, 336.96)" fill="#34465d"/>
      <circle cx="74.89" cy="130.67" r="19.4" fill="#97b1c0"/>
      <rect x="81.64" y="187.61" width="44.69" height="29.1" fill="#34465d"/>
      <path d="M83.57,110.11h43.82a25.49,25.49,0,0,1,25.49,25.49V147a47.44,47.44,0,0,1-47.44,47.44h0A47.44,47.44,0,0,1,58,147V135.69a25.58,25.58,0,0,1,25.58-25.58Z" fill="#bad5e8"/>
      <path d="M76.48,198.91c.92-4.74-1.29-9.15-5-10L58,185.78c-3.73-.86-7.65,2.15-8.9,6.83l-7.78,29.17H72.06Z" fill="#bad5e8"/>
      <text transform="translate(58.99 157.95) scale(0.09 1)" font-size="24.66" fill="#34465d" font-family="ROBO">DONAS</text>
      <rect x="63.5" y="162.84" width="9" height="18.72" rx="1.68" transform="translate(-70.79 49.66) rotate(-27.01)" fill="#d2e5f3"/>
      <ellipse cx="64.21" cy="173.55" rx="1.45" ry="2.68" transform="translate(-71.82 48.09) rotate(-27.01)" fill="#63b6b4"/>
      <ellipse cx="66.87" cy="178.78" rx="1.45" ry="2.68" transform="translate(-73.9 49.87) rotate(-27.01)" fill="#f7931e"/>
      <path d="M85.41.48h32.22a5.46,5.46,0,0,1,5.46,5.46v6.81a0,0,0,0,1,0,0H80.45a0,0,0,0,1,0,0V5.44A5,5,0,0,1,85.41.48Z" fill="#34465d"/>
      <path d="M150.57,54.87a53.35,53.35,0,0,0-.82-9.33c-2.25-20.7-23-36.93-48.28-36.93-18.78,0-35,9-43.1,22,.55,0,1.09-.08,1.65-.08A19.69,19.69,0,0,1,79.65,50.19v11A19.69,19.69,0,0,1,60,80.85a17.87,17.87,0,0,1-1.94-.1c8,13.35,24.39,22.51,43.39,22.51,25.29,0,46-16.23,48.28-36.93a53.27,53.27,0,0,0,.82-9.33h0c0-.36,0-.71,0-1.06s0-.71,0-1.07Z" fill="#bad5e8"/>
      <path d="M79.65,61.23v-11A19.69,19.69,0,0,0,60,30.57c-.56,0-1.1,0-1.65.08a35.78,35.78,0,0,0-5.18,14.9,53.15,53.15,0,0,0-.82,9.32h0c0,.36,0,.71,0,1.07s0,.7,0,1.06h0a53.27,53.27,0,0,0,.82,9.33,35.62,35.62,0,0,0,4.89,14.42,17.87,17.87,0,0,0,1.94.1A19.69,19.69,0,0,0,79.65,61.23Z" fill="#1a2136"/>
      <ellipse cx="110.02" cy="52.6" rx="18.4" ry="18.03" fill="#34465d"/>
      <rect x="116.32" y="129.55" width="13.43" height="64.02" transform="translate(45.73 -26.22) rotate(14.91)" fill="#34465d"/>
      <circle cx="132.27" cy="129.12" r="19.4" fill="#97b1c0"/>
      <path d="M129.22,196.3c1.49-5.84-.38-11-4.25-11.73L111,182c-3.86-.72-8.34,3.24-10.18,9l-8.33,26.12L120.3,231Z" fill="#bad5e8"/>
    </g>
  </g>
</svg>
