<svg xmlns="http://www.w3.org/2000/svg" viewBox="0 0 202.94 216.71">
  <g id="robots">
    <g id="moving_right">
      <rect x="83.08" y="100.05" width="18.65" height="7.48" transform="translate(184.8 207.58) rotate(-180)" fill="#34465d"/>
      <path d="M69.31,107H115.5a0,0,0,0,1,0,0v2.45a3.86,3.86,0,0,1-3.86,3.86H72.81a3.5,3.5,0,0,1-3.5-3.5V107A0,0,0,0,1,69.31,107Z" transform="translate(184.8 220.22) rotate(-180)" fill="#34465d"/>
      <rect x="112.56" y="129.55" width="13.43" height="64.02" transform="translate(-37.56 36.14) rotate(-14.91)" fill="#34465d"/>
      <circle cx="119.27" cy="130.67" r="19.4" fill="#97b1c0"/>
      <rect x="67.84" y="187.61" width="44.69" height="29.1" transform="translate(180.37 404.31) rotate(-180)" fill="#34465d"/>
      <path d="M88.73,110.11h0a47.44,47.44,0,0,1,47.44,47.44v11.39a25.49,25.49,0,0,1-25.49,25.49H66.87a25.58,25.58,0,0,1-25.58-25.58V157.55A47.44,47.44,0,0,1,88.73,110.11Z" transform="translate(177.47 304.54) rotate(180)" fill="#bad5e8"/>
      <path d="M117.69,198.91c-.92-4.74,1.29-9.15,5-10l13.5-3.12c3.73-.86,7.65,2.15,8.9,6.83l7.78,29.17H122.1Z" fill="#bad5e8"/>
      <text transform="matrix(-0.09, 0, 0, 1, 135.18, 157.95)" font-size="24.66" fill="#34465d" font-family="ROBO">DONAS</text>
      <rect x="121.68" y="162.84" width="9" height="18.72" rx="1.68" transform="translate(160.38 382.92) rotate(-152.99)" fill="#d2e5f3"/>
      <ellipse cx="129.96" cy="173.55" rx="2.68" ry="1.45" transform="translate(-83.69 210.51) rotate(-62.99)" fill="#63b6b4"/>
      <ellipse cx="127.29" cy="178.78" rx="2.68" ry="1.45" transform="translate(-89.79 210.99) rotate(-62.99)" fill="#f7931e"/>
      <path d="M71.09.48h42.63a0,0,0,0,1,0,0V7.29a5.46,5.46,0,0,1-5.46,5.46H76a5,5,0,0,1-5-5V.48A0,0,0,0,1,71.09.48Z" transform="translate(184.8 13.23) rotate(-180)" fill="#34465d"/>
      <path d="M43.6,54.87a53.35,53.35,0,0,1,.82-9.33c2.24-20.7,23-36.93,48.28-36.93,18.78,0,35,9,43.1,22-.55,0-1.1-.08-1.65-.08a19.68,19.68,0,0,0-19.63,19.62v11a19.68,19.68,0,0,0,19.63,19.62,17.87,17.87,0,0,0,1.94-.1c-8,13.35-24.39,22.51-43.39,22.51-25.29,0-46-16.23-48.28-36.93A53.27,53.27,0,0,1,43.6,57h0c0-.36,0-.71,0-1.06s0-.71,0-1.07Z" fill="#bad5e8"/>
      <path d="M114.52,61.23v-11a19.68,19.68,0,0,1,19.63-19.62c.55,0,1.1,0,1.65.08A35.63,35.63,0,0,1,141,45.55a53.15,53.15,0,0,1,.82,9.32h0c0,.36,0,.71,0,1.07s0,.7,0,1.06h0a53.27,53.27,0,0,1-.82,9.33,35.61,35.61,0,0,1-4.88,14.42,17.87,17.87,0,0,1-1.94.1A19.68,19.68,0,0,1,114.52,61.23Z" fill="#1a2136"/>
      <ellipse cx="84.15" cy="52.6" rx="18.4" ry="18.03" fill="#34465d"/>
      <rect x="64.41" y="129.55" width="13.43" height="64.02" transform="translate(181.44 299.38) rotate(165.09)" fill="#34465d"/>
      <circle cx="61.89" cy="129.12" r="19.4" fill="#97b1c0"/>
      <path d="M65,196.3c-1.5-5.84.37-11,4.24-11.73l14-2.62c3.87-.72,8.35,3.24,10.19,9l8.33,26.12L73.86,231Z" fill="#bad5e8"/>
    </g>
  </g>
</svg>
