<svg xmlns="http://www.w3.org/2000/svg" viewBox="0 0 202.94 216.71">
  <g id="robots">
    <g id="moving_left">
      <rect x="92.44" y="100.05" width="18.65" height="7.48" fill="#34465d"/>
      <path d="M82.17,107H121a3.86,3.86,0,0,1,3.86,3.86v2.45a0,0,0,0,1,0,0H78.67a0,0,0,0,1,0,0v-2.8A3.5,3.5,0,0,1,82.17,107Z" fill="#34465d"/>
      <rect x="68.18" y="129.55" width="13.43" height="64.02" transform="matrix(-0.97, -0.26, 0.26, -0.97, 105.69, 336.96)" fill="#34465d"/>
      <circle cx="74.89" cy="130.67" r="19.4" fill="#97b1c0"/>
      <rect x="81.64" y="187.61" width="44.69" height="29.1" fill="#34465d"/>
      <path d="M83.57,110.11h43.82a25.49,25.49,0,0,1,25.49,25.49V147a47.44,47.44,0,0,1-47.44,47.44h0A47.44,47.44,0,0,1,58,147V135.69a25.58,25.58,0,0,1,25.58-25.58Z" fill="#bad5e8"/>
      <path d="M76.48,198.91c.92-4.74-1.29-9.15-5-10L58,185.78c-3.73-.86-7.65,2.15-8.9,6.83l-7.78,29.17H72.06Z" fill="#bad5e8"/>
      <g>
        <path d="M60.46,148.18c0,1.14,0,2.23,0,3.27s-.06,2-.11,2.82-.1,1.55-.16,2.13a6.3,6.3,0,0,1-.21,1.15c-.1.27-.16.4-.19.4H59V138.22h.69c.11,0,.22.25.32.74a18.78,18.78,0,0,1,.24,2.06c.07.88.13,1.93.16,3.16S60.46,146.74,60.46,148.18ZM60,147s0-.17,0-.41,0-.52,0-.86,0-.69,0-1.07,0-.73-.08-1c0-.51-.09-.76-.13-.76h-.33v10.45h.27Q60,153.31,60,147Z" fill="#34465d"/>
        <path d="M62.21,148.06q0,2.15-.06,4c0,1.21-.09,2.25-.16,3.13a18.35,18.35,0,0,1-.25,2.06c-.1.49-.21.74-.33.74s-.23-.24-.32-.72a16.77,16.77,0,0,1-.26-2c-.07-.87-.12-1.91-.16-3.11s-.06-2.53-.06-4,0-2.77.06-4,.09-2.25.16-3.12a20.66,20.66,0,0,1,.26-2c.1-.49.21-.74.33-.74s.23.25.32.74A18.35,18.35,0,0,1,62,141c.07.88.12,1.92.16,3.12S62.21,146.65,62.21,148.06Zm-.39.05q0-1.14,0-2.13c0-.67,0-1.25-.08-1.74s-.08-.89-.13-1.17-.1-.44-.16-.44-.12.14-.17.41-.09.66-.12,1.15-.06,1.08-.08,1.76,0,1.43,0,2.23,0,1.49,0,2.15.05,1.23.08,1.71.08.87.12,1.15.11.42.16.42.12-.15.17-.43.09-.68.13-1.17.06-1.08.08-1.74S61.82,148.88,61.82,148.11Z" fill="#34465d"/>
        <path d="M63.94,158h-.47l-.67-11.81V158h-.44V138.22h.49l.65,11.84V138.22h.44Z" fill="#34465d"/>
        <path d="M65.74,158H65.3l-.11-3.58H64.9l-.14-3.28-.2,6.86h-.44l.59-19.73h.44Zm-.69-8.21-.12-4.12-.13,4.12Z" fill="#34465d"/>
        <path d="M67.32,151.76c0,.94,0,1.79,0,2.55s-.06,1.42-.1,2a10.05,10.05,0,0,1-.16,1.25c-.06.29-.13.43-.21.43h-1v-4.44h.88c.05,0,.09-.13.13-.41a10.56,10.56,0,0,0,0-1.09,9.91,9.91,0,0,0,0-1,1.1,1.1,0,0,0-.13-.53l0,0h-.24a.25.25,0,0,1-.21-.15,1.5,1.5,0,0,1-.14-.45,6.31,6.31,0,0,1-.1-.82c0-.33-.06-.74-.08-1.22-.05-1-.07-2.18-.07-3.52q0-1.36,0-2.49c0-.76.06-1.41.1-1.94s.1-.95.16-1.24.13-.45.21-.45h1l-.2,4.64-.71-.05q-.15,0-.15,1.53c0,.44,0,.81,0,1.09s.07.44.11.44h.4Q67.32,145.87,67.32,151.76Z" fill="#34465d"/>
      </g>
      <rect x="63.5" y="162.84" width="9" height="18.72" rx="1.68" transform="translate(-70.79 49.66) rotate(-27.01)" fill="#d2e5f3"/>
      <ellipse cx="64.21" cy="173.55" rx="1.45" ry="2.68" transform="translate(-71.82 48.09) rotate(-27.01)" fill="#63b6b4"/>
      <ellipse cx="66.87" cy="178.78" rx="1.45" ry="2.68" transform="translate(-73.9 49.87) rotate(-27.01)" fill="#f7931e"/>
      <path d="M85.41.48h32.22a5.46,5.46,0,0,1,5.46,5.46v6.81a0,0,0,0,1,0,0H80.45a0,0,0,0,1,0,0V5.44A5,5,0,0,1,85.41.48Z" fill="#34465d"/>
      <path d="M150.57,54.87a53.35,53.35,0,0,0-.82-9.33c-2.25-20.7-23-36.93-48.28-36.93-18.78,0-35,9-43.1,22,.55,0,1.09-.08,1.65-.08A19.69,19.69,0,0,1,79.65,50.19v11A19.69,19.69,0,0,1,60,80.85a17.87,17.87,0,0,1-1.94-.1c8,13.35,24.39,22.51,43.39,22.51,25.29,0,46-16.23,48.28-36.93a53.27,53.27,0,0,0,.82-9.33h0c0-.36,0-.71,0-1.06s0-.71,0-1.07Z" fill="#bad5e8"/>
      <path d="M79.65,61.23v-11A19.69,19.69,0,0,0,60,30.57c-.56,0-1.1,0-1.65.08a35.78,35.78,0,0,0-5.18,14.9,53.15,53.15,0,0,0-.82,9.32h0c0,.36,0,.71,0,1.07s0,.7,0,1.06h0a53.27,53.27,0,0,0,.82,9.33,35.62,35.62,0,0,0,4.89,14.42,17.87,17.87,0,0,0,1.94.1A19.69,19.69,0,0,0,79.65,61.23Z" fill="#1a2136"/>
      <ellipse cx="110.02" cy="52.6" rx="18.4" ry="18.03" fill="#34465d"/>
      <rect x="116.32" y="129.55" width="13.43" height="64.02" transform="translate(45.73 -26.22) rotate(14.91)" fill="#34465d"/>
      <circle cx="132.27" cy="129.12" r="19.4" fill="#97b1c0"/>
      <path d="M129.22,196.3c1.49-5.84-.38-11-4.25-11.73L111,182c-3.86-.72-8.34,3.24-10.18,9l-8.33,26.12L120.3,231Z" fill="#bad5e8"/>
    </g>
  </g>
</svg>
