<svg xmlns="http://www.w3.org/2000/svg" viewBox="0 0 619.05 184.78">
  <g id="bar_shelves">
    <g>
      <g>
        <rect x="176.75" y="121.19" width="442.3" height="18.33" fill="#34465d"/>
        <rect x="221.15" y="130.36" width="8.59" height="54.43" fill="#34465d"/>
        <rect x="566.05" y="130.36" width="8.59" height="54.43" fill="#34465d"/>
      </g>
      <g>
        <rect y="0.65" width="442.3" height="18.33" fill="#34465d"/>
        <rect x="44.4" y="9.82" width="8.59" height="54.43" fill="#34465d"/>
        <rect x="389.3" y="9.82" width="8.59" height="54.43" fill="#34465d"/>
      </g>
      <g>
        <g>
          <path d="M577.67,52.92v63a5.25,5.25,0,0,1-5.25,5.24H550.63a5.25,5.25,0,0,1-5.26-5.24v-63a14.77,14.77,0,0,1,10.28-14.07,15,15,0,0,1,4.49-.69h2.77a15.23,15.23,0,0,1,4.5.69A14.78,14.78,0,0,1,577.67,52.92Z" fill="#942232"/>
          <rect x="555.65" y="29.17" width="11.76" height="20.29" fill="#942232"/>
          <path d="M568.16,12.7V23l-.07.75c-.25,1.86-1.23,5.42-2.39,5.42h-8.35c-1.18,0-2.15-3.6-2.4-5.46L554.9,23V12.7a2.44,2.44,0,0,1,2.45-2.45h8.35A2.45,2.45,0,0,1,568.16,12.7Z" fill="#f5dcb2"/>
          <polygon points="568.16 23 568.09 23.75 567.41 31.67 567.39 31.88 555.65 31.88 554.95 23.71 554.9 23 568.16 23" fill="#f5dcb2"/>
          <rect x="551.15" y="61.57" width="20.76" height="24.22" rx="1.45" fill="#f2f2f2"/>
          <rect x="545.37" y="81.52" width="32.3" height="5.77" fill="#f5dcb2"/>
          <rect x="555.64" y="66.82" width="11.76" height="11.76" rx="5.88" fill="#c1aa82"/>
        </g>
        <path d="M561.53,10.25V121.19h-10.9a5.25,5.25,0,0,1-5.26-5.24v-63a14.77,14.77,0,0,1,10.28-14.07v-7l-.7-8.17L554.9,23V12.7a2.44,2.44,0,0,1,2.45-2.45Z" opacity="0.11"/>
      </g>
      <g>
        <g>
          <path d="M219.58,63.28v43.9a12.12,12.12,0,0,1-.24,2.33v9.26a2.68,2.68,0,0,1-2.86,2.42H189.55a2.68,2.68,0,0,1-2.88-2.42V63.28c0-6.19,4.73-11.44,11.27-13.29V34.86h10.39V50C214.87,51.84,219.58,57.09,219.58,63.28Z" fill="#c9d1d5"/>
          <path d="M209.6,36.17v5.69a1.31,1.31,0,0,1-1.27,1.31H197.94a1.31,1.31,0,0,1-1.29-1.31V36.17a1.32,1.32,0,0,1,1.29-1.31h10.39A1.31,1.31,0,0,1,209.6,36.17Z" fill="#a91830"/>
          <rect x="186.67" y="75.36" width="32.91" height="18.57" fill="#a91830"/>
        </g>
        <path d="M201.79,34.86v86.33H189.55a2.68,2.68,0,0,1-2.88-2.42V63.28c0-6.19,4.73-11.44,11.27-13.29V43.17a1.31,1.31,0,0,1-1.29-1.31V36.17a1.32,1.32,0,0,1,1.29-1.31Z" opacity="0.14"/>
      </g>
      <g>
        <g>
          <path d="M264.41,63.28v43.9a12.12,12.12,0,0,1-.24,2.33v9.26a2.68,2.68,0,0,1-2.86,2.42H234.37a2.68,2.68,0,0,1-2.87-2.42V63.28c0-6.19,4.73-11.44,11.26-13.29V34.86h10.4V50C259.7,51.84,264.41,57.09,264.41,63.28Z" fill="#c9d1d5"/>
          <path d="M254.42,36.17v5.69a1.3,1.3,0,0,1-1.26,1.31h-10.4a1.31,1.31,0,0,1-1.28-1.31V36.17a1.32,1.32,0,0,1,1.28-1.31h10.4A1.3,1.3,0,0,1,254.42,36.17Z" fill="#a91830"/>
          <rect x="231.5" y="75.36" width="32.91" height="18.57" fill="#a91830"/>
        </g>
        <path d="M246.62,34.86v86.33H234.37a2.68,2.68,0,0,1-2.87-2.42V63.28c0-6.19,4.73-11.44,11.26-13.29V43.17a1.31,1.31,0,0,1-1.28-1.31V36.17a1.32,1.32,0,0,1,1.28-1.31Z" opacity="0.14"/>
      </g>
      <g>
        <path d="M315.36,72.36v48.77H281.19V72.36c0-6,5-10.87,11.42-11.46V58h11.32V60.9C310.35,61.49,315.36,66.39,315.36,72.36Z" fill="#b06e44"/>
        <path d="M305.6,51.21v6.36A1.59,1.59,0,0,1,304,59.16H292.61a1.59,1.59,0,0,1-1.51-1.58V51.21a1.6,1.6,0,0,1,1.6-1.59H304A1.58,1.58,0,0,1,305.6,51.21Z" fill="#030500"/>
        <rect x="287.1" y="79.86" width="22.35" height="31.43" fill="#fdf8fc"/>
        <rect x="287.1" y="75.99" width="22.35" height="9.83" rx="2.5" fill="#fdf8fc"/>
        <path d="M295.51,49.62v71.51H281.19V72.36c0-6,5-10.87,11.42-11.46V59.15a1.59,1.59,0,0,1-1.51-1.58V51.21a1.6,1.6,0,0,1,1.6-1.59Z" opacity="0.35"/>
      </g>
      <g>
        <polygon points="349.88 121.15 325.17 121.15 337.01 100.64 337.52 99.75 338.07 100.7 349.88 121.15" fill="#dddee2"/>
        <rect x="337.01" y="78.48" width="1.06" height="22.99" fill="#dddee2"/>
        <polygon points="345.58 76.36 338.07 78.78 337.52 78.95 337.01 78.79 329.46 76.36 345.58 76.36" fill="#dddee2"/>
        <polygon points="337.52 76.36 337.52 121.15 325.17 121.15 337.01 100.64 337.01 78.79 329.46 76.36 337.52 76.36" opacity="0.19"/>
      </g>
      <g>
        <polygon points="381.49 121.15 356.78 121.15 368.62 100.64 369.13 99.75 369.68 100.7 381.49 121.15" fill="#dddee2"/>
        <rect x="368.62" y="78.48" width="1.06" height="22.99" fill="#dddee2"/>
        <polygon points="377.19 76.36 369.68 78.78 369.13 78.95 368.62 78.79 361.07 76.36 377.19 76.36" fill="#dddee2"/>
        <polygon points="369.13 76.36 369.13 121.15 356.78 121.15 368.62 100.64 368.62 78.79 361.07 76.36 369.13 76.36" opacity="0.19"/>
      </g>
      <g>
        <polygon points="413.1 121.15 388.39 121.15 400.23 100.64 400.74 99.75 401.29 100.7 413.1 121.15" fill="#dddee2"/>
        <rect x="400.23" y="78.48" width="1.06" height="22.99" fill="#dddee2"/>
        <polygon points="408.8 76.36 401.29 78.78 400.74 78.95 400.23 78.79 392.68 76.36 408.8 76.36" fill="#dddee2"/>
        <polygon points="400.74 76.36 400.74 121.15 388.39 121.15 400.23 100.64 400.23 78.79 392.68 76.36 400.74 76.36" opacity="0.19"/>
      </g>
      <g>
        <polygon points="444.71 121.15 420 121.15 431.84 100.64 432.35 99.75 432.9 100.7 444.71 121.15" fill="#dddee2"/>
        <rect x="431.84" y="78.48" width="1.06" height="22.99" fill="#dddee2"/>
        <polygon points="440.42 76.36 432.9 78.78 432.35 78.95 431.84 78.79 424.29 76.36 440.42 76.36" fill="#dddee2"/>
        <polygon points="432.35 76.36 432.35 121.15 420 121.15 431.84 100.64 431.84 78.79 424.29 76.36 432.35 76.36" opacity="0.19"/>
      </g>
      <g>
        <polygon points="476.32 121.15 451.61 121.15 463.45 100.64 463.96 99.75 464.51 100.7 476.32 121.15" fill="#dddee2"/>
        <rect x="463.45" y="78.48" width="1.06" height="22.99" fill="#dddee2"/>
        <polygon points="472.02 76.36 464.51 78.78 463.96 78.95 463.45 78.79 455.9 76.36 472.02 76.36" fill="#dddee2"/>
        <polygon points="463.96 76.36 463.96 121.15 451.61 121.15 463.45 100.64 463.45 78.79 455.9 76.36 463.96 76.36" opacity="0.19"/>
      </g>
      <g>
        <polygon points="507.93 121.15 483.22 121.15 495.06 100.64 495.57 99.75 496.12 100.7 507.93 121.15" fill="#dddee2"/>
        <rect x="495.06" y="78.48" width="1.06" height="22.99" fill="#dddee2"/>
        <polygon points="503.63 76.36 496.12 78.78 495.57 78.95 495.06 78.79 487.51 76.36 503.63 76.36" fill="#dddee2"/>
        <polygon points="495.57 76.36 495.57 121.15 483.22 121.15 495.06 100.64 495.06 78.79 487.51 76.36 495.57 76.36" opacity="0.19"/>
      </g>
    </g>
  </g>
</svg>
