<svg xmlns="http://www.w3.org/2000/svg" viewBox="0 0 140.06 78.45">
  <g id="taps">
    <ellipse cx="70.03" cy="54.81" rx="70.03" ry="23.64" fill="#b3b3b3"/>
  </g>
  <g id="Isolation_Mode" data-name="Isolation Mode">
    <g>
      <ellipse cx="106.19" cy="8.31" rx="15.06" ry="3.62" fill="none" stroke="#34465d" stroke-miterlimit="10" stroke-width="0.5"/>
      <path d="M91.13,8.31V50.83c0,4,6.74,6.51,15.06,6.51s15.06-2.51,15.06-6.51V8.31" fill="none" stroke="#34465d" stroke-miterlimit="10" stroke-width="0.5"/>
      <path d="M106.14,13.69c-7.6,0-13.77,1.48-13.77,3.3V52c0,1.82,6.22,4.12,13.82,4.12s13.72-2.3,13.72-4.12V17C119.91,15.17,113.75,13.69,106.14,13.69Z" fill="#ffb444"/>
    </g>
    <g>
      <ellipse cx="69.77" cy="5.22" rx="15.06" ry="3.62" fill="none" stroke="#34465d" stroke-miterlimit="10" stroke-width="0.5"/>
      <path d="M54.71,5.22V47.74c0,4,6.74,6.5,15.06,6.5s15.06-2.5,15.06-6.5V5.22" fill="none" stroke="#34465d" stroke-miterlimit="10" stroke-width="0.5"/>
      <path d="M69.72,10.59C62.11,10.59,56,12.07,56,13.9v35c0,1.82,6.21,4.12,13.82,4.12s13.72-2.3,13.72-4.12v-35C83.49,12.07,77.33,10.59,69.72,10.59Z" fill="#ffb444"/>
    </g>
    <g>
      <ellipse cx="31.39" cy="6.41" rx="15.06" ry="3.62" fill="none" stroke="#34465d" stroke-miterlimit="10" stroke-width="0.5"/>
      <path d="M16.33,6.41V48.93c0,4,6.74,6.5,15.06,6.5s15.06-2.5,15.06-6.5V6.41" fill="none" stroke="#34465d" stroke-miterlimit="10" stroke-width="0.5"/>
      <path d="M31.34,11.79c-7.6,0-13.77,1.47-13.77,3.3v35c0,1.82,6.21,4.12,13.82,4.12s13.72-2.3,13.72-4.12v-35C45.11,13.26,39,11.79,31.34,11.79Z" fill="#ffb444"/>
    </g>
    <g>
      <ellipse cx="56.05" cy="18.93" rx="15.06" ry="3.62" fill="none" stroke="#34465d" stroke-miterlimit="10" stroke-width="0.5"/>
      <path d="M41,18.93V61.44c0,4,6.74,6.51,15.06,6.51s15.06-2.5,15.06-6.51V18.93" fill="none" stroke="#34465d" stroke-miterlimit="10" stroke-width="0.5"/>
      <path d="M56,24.3c-7.61,0-13.77,1.48-13.77,3.3v35c0,1.82,6.21,4.12,13.82,4.12s13.72-2.3,13.72-4.12v-35C69.77,25.78,63.6,24.3,56,24.3Z" fill="#ffb444"/>
    </g>
    <g>
      <ellipse cx="91.13" cy="19.03" rx="15.06" ry="3.62" fill="none" stroke="#34465d" stroke-miterlimit="10" stroke-width="0.5"/>
      <path d="M76.07,19V61.55c0,4,6.74,6.51,15.06,6.51s15.06-2.51,15.06-6.51V19" fill="none" stroke="#34465d" stroke-miterlimit="10" stroke-width="0.5"/>
      <path d="M91.08,24.41c-7.6,0-13.77,1.48-13.77,3.3v35c0,1.83,6.22,4.13,13.82,4.13s13.72-2.3,13.72-4.13v-35C104.85,25.89,98.69,24.41,91.08,24.41Z" fill="#ffb444"/>
    </g>
  </g>
</svg>
