<svg id="crowd_silhouette" data-name="Layer 2" xmlns="http://www.w3.org/2000/svg" viewBox="0 0 1581.03 444.46" >
  <path style="fill: #2C1111;" d="M1581,444.46V120.18a10.56,10.56,0,0,1-5.43-1.83c2.42-8.59,2.28-21.16-7.07-22.43-2.36-.32-4.79.31-7.14-.06-8-1.26-8.93-12.38-4.35-18.67s12.22-10.31,16.39-16.85a6.73,6.73,0,0,0,1.32-4c-.34-4.06-6.23-5.21-10.49-4.37s-9.1,2.46-12.62.09a154.77,154.77,0,0,0,14.45-28.53,140.45,140.45,0,0,0-27.35,14.62A158.71,158.71,0,0,1,1547,8.51a61.89,61.89,0,0,0-29.43,25.83,94.47,94.47,0,0,1,4.83-27.62q-8.33,11.84-16.66,23.65c-2.85,4.05-5.85,8.23-10.29,10.71-6.3,3.54-14.13,3-21.43,3.5-22.3,1.63-44.93,19.08-42.64,39.91.77,7.06,5.44,14.55,12.94,15.52,5.46.7,10.63-2.18,15.91-3.7s12.43-.83,14.32,4c-5.11,10.87-17.62,16.55-28.56,22.57-1.45.81-2.92,1.67-4.36,2.58a7.15,7.15,0,0,0-2.56-2.41c-5.48-7-16.37-10-21.44-17.52-.22-.32-.42-.66-.62-1l14.18-12.4c2.43-2.13-.1-8.37-5.65-14s-12-8.37-14.44-6.25L1373.31,105l.11.12a1.6,1.6,0,0,0-.64.39c-1.77,1.82,1.55,7.35,7.42,12.45a9.6,9.6,0,0,0,2.32,4.68,5.83,5.83,0,0,1,1.75,2.53,4.51,4.51,0,0,1-1,3.09,13.62,13.62,0,0,0-9.8,7.08,35.92,35.92,0,0,0-6-.22c-8.16.38-14.65,3.2-14.5,6.3l.65,14.1c-4.6.71-9.13,1.48-13.56,2.33a15.43,15.43,0,0,0-1.54-3.2,8.26,8.26,0,0,0-3.94-3.44,12.41,12.41,0,0,0-5.16-.37c-5.78.41-12.41,1.26-15.56,5.83a13.3,13.3,0,0,0-1.92,7.8c-6.28,1.78-12.3,3.7-18,5.76a68,68,0,0,1,1.77-11.57c1.11-4.44,2.69-9.29.56-13.37a5.47,5.47,0,0,0-1.67-2,9.1,9.1,0,0,0-4.12-1.19l-24.5-2.94c-6.9-.83-14.08-1.76-19.82-5.42s-9.36-10.67-6.72-16.56l1.39.72,8.17-1,41.73-4.93c5-.59,10.78-1.67,13.09-5.87,1.91-3.45.49-7.9-2.46-10.6s-7.1-3.93-11.18-4.51c-3.85-.55-8-.68-11.08-2.94-5.77-4.27-5.45-14.61-12.63-16.15-3.74-.79-7.46,1.58-9.89,4.37s-4.16,6.14-7,8.56a4.68,4.68,0,0,1-2.49,1.24c-3,.26-3.91-3.64-5.79-5.83-3.22-3.74-10.2-2-13.1,2s-3,9.12-3.49,13.92a12.91,12.91,0,0,1-1.33,5.26,8.09,8.09,0,0,1-6.71,3.89l1.73.9a19.17,19.17,0,0,0-2.84.67,12,12,0,0,1-7.2-6c-1-2-1.42-4.35-3.17-5.8-2.78-2.31-7.7-.73-9.29,2.44s-.44,7,1.87,9.78,5.58,4.55,8.77,6.34c1.25.7,2.65,1.64,2.64,3,0,2.83-5.3,2.67-6.61,5.23-.91,1.77.77,3.92,2.79,4.4s4.14-.16,6.12-.81a65.42,65.42,0,0,1,.11,23.92,4.18,4.18,0,0,1-.86,2.17c-1.32,1.44-3.79.79-5.64,0l-14.52-6.07c-1.7-.71-3.51-1.51-4.43-3-1.23-2-.45-4.56-.43-6.91s-1.69-5.22-4.13-4.68c-2,.44-2.65,2.81-2.83,4.74a97.55,97.55,0,0,0-.42,11.84,26.83,26.83,0,0,0-13.35.26c-2.46.69-4.92,1.83-6.33,3.84s-1.37,5,.64,6.51a7.62,7.62,0,0,0,4.15,1.11,34.2,34.2,0,0,0,14.1-2.32,22.31,22.31,0,0,0-9.42,9.65c-1.56,3.18-1.41,8.12,2.23,8.84,2.55.5,4.86-1.64,6-3.85s1.68-4.75,3.47-6.53a116.45,116.45,0,0,0,.24,15.06,2.81,2.81,0,0,0,.59,1.81c1.41,1.45,3.73-.68,4.45-2.53a44.26,44.26,0,0,0,3-15.92,75.35,75.35,0,0,1,14.07,4.49,9.89,9.89,0,0,1,3.78,2.43c1.34,1.64,1.45,3.9,1.17,5.95-1,6.94-5.42,12.94-8.7,19.23a70.24,70.24,0,0,0-5.56,14.71v1.56a33.44,33.44,0,0,0-8-1c-16.74,0-31,12.33-36.91,29.78a37.29,37.29,0,0,0-4.76-.08c-8.16.38-14.65,3.2-14.5,6.3l.46,10.11a70,70,0,0,0-5.54-4.55c-5.24-3.92-10.9-7.62-14.52-12.91-4.72-6.91-5.33-15.75-3.64-23.83a5.38,5.38,0,0,1,1.34-3,6.21,6.21,0,0,1,3.93-1.18c13.31-.78,27.39,2.14,39.56-3a9.53,9.53,0,0,0,4.45-3.23,5.59,5.59,0,0,0,.75-1.79c1,1.22,2.21,2,3.65,1.53a4.19,4.19,0,0,0,2-1.89c4-6.34,3.53-14.24,2.14-21.46-.44-2.3-1-4.69-2.6-6.49s-4.48-2.8-6.66-1.64a6.5,6.5,0,0,0-2.58,3,16.84,16.84,0,0,0-1.78,7.82,28.36,28.36,0,0,0-2.69-3.9l-.74-1.5.39,1.1a17.28,17.28,0,0,0-8.66-5.58c-3.27-.88-6.75-.7-10.15-.51l-2.4.13a17.25,17.25,0,0,0-.08-1.9,27.58,27.58,0,0,0-4.53-12.65,38.08,38.08,0,0,0-5.29,15.1l-18.66,1a63.3,63.3,0,0,0-2.33-15.21c-.35-1.25-1.31-2.8-2.63-2.4a2.42,2.42,0,0,0-1.3,1.33c-2.75,5.17-3.31,11-3.31,16.81l-16.28.91a11.5,11.5,0,0,0-.47-2.94q-1.8-6.37-3.59-12.75c-2.15-.62-3.7,2-4.19,4a55.39,55.39,0,0,0-1.53,12.21c-4.56.27-9.22.73-13.18,2.85-6.11,3.28-9,9.6-9.58,16.33a23.13,23.13,0,0,0-1-3c-.23-2.39-.65-4.83-2.2-6.7-1.78-2.15-5.6-3-7.59-1a6.7,6.7,0,0,0-1.46,3.13,65.56,65.56,0,0,0-1.74,22.61c.2,2.07.64,4.37,2.44,5.57a5.61,5.61,0,0,0,5.69-.09,10.61,10.61,0,0,0,3.85-4.26,21.64,21.64,0,0,0,2.43-7.05c.1.56.21,1.12.34,1.67a13.76,13.76,0,0,0,2.76,6.24c3.48,3.91,9.84,3.88,15.22,3.11s11.3-1.88,15.95.75c5.22,2.95,6.68,9.65,5.42,15.26s-4.59,10.6-7,15.86c-.8,1.73-1.5,3.49-2.12,5.28l-.42-9.24c-.15-3.1-6.87-5.31-15-4.94s-14.65,3.2-14.5,6.3l1.27,27.51c-2.14.39-4.27.79-6.37,1.21,2.7-1.63,4.93-4.26,4.59-7.19a2.85,2.85,0,0,0-1.71-2.46,4.26,4.26,0,0,0-2.53.22,93.25,93.25,0,0,0-9.06,3.29,117.53,117.53,0,0,0,9.18-22c.66-2.2.66-5.39-1.72-5.82-1.7-.31-3.11,1.18-4.07,2.53a105.54,105.54,0,0,0-10.88,19l3.72-15.46c1.1-4.58,1.64-10.47-2.65-12.83l-9.09,27.24c-5.86-2.2-7.52-10.8-13.8-11.45a19.8,19.8,0,0,0,9.59,15.32c.68.41,1.45.87,1.59,1.62a2.45,2.45,0,0,1-.51,1.65l-5,8.37c-3.59-7.32-8.49-14-15.3-18.83a42.07,42.07,0,0,0-30.06-7c5.63-4,6.74-11.26,7-18a6.89,6.89,0,0,0,4-1.51,7.27,7.27,0,0,0,1.92-8.23,5.49,5.49,0,0,0-1.9-2.52,6.13,6.13,0,0,0-3.69-.91l.33-14.61a45.07,45.07,0,0,0,7.95-2,4.43,4.43,0,0,0,1.91-1.06,3.81,3.81,0,0,0,.78-1.95,19.35,19.35,0,0,0-.46-8.69,1.84,1.84,0,0,0-.86-1.27c-.5-.22-1.26.23-1,.7l-.86,1.29-7.14.75c.08-3.73.17-7.45.25-11.18a18.07,18.07,0,0,0-.5-5.87,18.25,18.25,0,0,0-4.12-6.29,183.87,183.87,0,0,0-19.64-19l-5.6,7.08a4.61,4.61,0,0,0-3.65-1.67,5.26,5.26,0,0,0-4.17,3,13.78,13.78,0,0,0-1.2,5l1.59-1.86a20.4,20.4,0,0,0,2,2.41c-2.12,2.69-4.24,5.48-5.09,8.72a24.78,24.78,0,0,0-.28,8.2q.27,3.47.53,6.93c-2.06.13-4.33-.24-5.67,1.16a3.36,3.36,0,0,0-.85,2.18c-.13,2.73,2.41,5.25,5.31,5.47a6.22,6.22,0,0,0,1.88-.17q1,12.66,2,25.31c.64,8.24,1.91,17.59,9.12,22.31,3,2,7.36,4.8,5.27,7.61a6.31,6.31,0,0,1-2.72,1.73,32.62,32.62,0,0,0-13.17,11.19l-1.21-26.17c-.14-3.1-6.87-5.31-15-4.93s-14.64,3.19-14.5,6.3l1.25,27a27.47,27.47,0,0,0-12.83-5.38,17.37,17.37,0,0,0-4.93.08,317,317,0,0,1-1.26-41.92c.08-2,.75-4.58,2.87-4.73a3.26,3.26,0,0,1,1.27.21c4,1.4,4.27,6.53,3.66,10.49s-1,8.91,2.66,11c2.79,1.59,6.7.31,8.65-2.17s2.28-5.76,2-8.81a6.49,6.49,0,0,0-1.22-3.52c-1-1.14-2.49-1.68-3.71-2.58-2.5-1.83-3.43-5-3.91-7.92s-.7-6.05-2.29-8.63-5.15-4.41-8-3.08a7.93,7.93,0,0,0-3.24,3.3c-4.08,6.68-5.29,14.53-6.13,22.19a304.28,304.28,0,0,0-1.8,37.44,48.26,48.26,0,0,0-17.59,3.51c-.1-18.21-.41-37.18-9.25-53.36-2.58-4.71-7.21-9.67-12.78-8.66s-8,7.36-9.2,12.66a9,9,0,0,0-8.28,4.6,7.88,7.88,0,0,0,1.32,8.91c1.71,1.79,4.65,2.79,6.94,1.67,3-1.45,3.25-5.26,3.28-8.41s.81-7,4-7.92a5.7,5.7,0,0,1,5.85,2.44,14.26,14.26,0,0,1,2,6.1,406.34,406.34,0,0,1,4.89,47.71,73,73,0,0,0-19.14,17.52,64,64,0,0,0-10,19.52l-9.45.66Q802.9,300,805,289.4c2.58-12.84,5-26.92-1.85-38.26-8-13.34-26-18.34-36.63-29.95l-9.08-8.94c-1-1.18-2.15-2.45-2.19-4a7.56,7.56,0,0,1,1.36-3.64,19.34,19.34,0,0,0-.95-19.79c-1.18-1.75-2.67-3.37-3.21-5.37-.73-2.7.4-5.5,1.12-8.21a28.77,28.77,0,0,0-3.4-22.42c-1.42-2.28-3.31-4.49-6-5.37-7-2.32-12.89,5.39-15.89,11.8,1.86-6.72-5.42-14-12.7-12.75-9.82,1.72-12.52,13.71-19.68,20.26.4-5-5.65-8.87-10.86-7.88s-9,5.53-10.38,10.35c-2.33,8.27,3.09,18.55,12.15,19.38a28.24,28.24,0,0,0-6.4,22.12c.61,4.1,3.38,8.86,7.79,8.52,4.1-.31,6.12-4.65,8.17-8,5.71-9.36,21.51-13.88,28.66-5.49,2.71,3.18,3.57,7.47,3.31,11.54-.68,10.84-9.75,20.28-20.66,23.55a2.8,2.8,0,0,0-.49-.33,6.58,6.58,0,0,0-2.69-.56l-10.45-.67-1.46-.16c-7.07,7.44-.54,19.14,10,19.87,2.12.14,4.31-.15,6.34.41,3.94,1.08,6.21,5.11,6.47,8.95a25.75,25.75,0,0,1-1.09,8.14,245.61,245.61,0,0,0-29.83-7.66l-.67-14.38c-.14-3.1-6.86-5.31-15-4.94s-14.64,3.2-14.5,6.3l.41,8.68c-11.22-1.13-23-1.79-35.12-1.93l-1-22c-.15-3.1-6.87-5.31-15-4.94-6,.28-11,1.87-13.27,3.92a26.15,26.15,0,0,0-1.57-4.83l-.13-2.9c-.14-3.1-6.87-5.31-15-4.93s-14.64,3.2-14.5,6.3l1.51,32.65q-10.41,1.32-20.29,3.09l-.83-17.81c-.12-2.7-5.26-4.73-12-4.95l-.07,0a21.74,21.74,0,0,0,2.89-10.48,20.38,20.38,0,0,0-9.14,5.21,19,19,0,0,0,3.45-16.88,24.22,24.22,0,0,0-8.89,10.63,63.62,63.62,0,0,0,2.67-17.13c0-1.72-.82-4.09-2.61-3.71-1,.22-1.52,1.26-1.89,2.17l-9.84,24.79q-1.85-7.74-3.71-15.47c-.28-1.17-.78-2.56-2-2.8-2.35-.45-2.69,3.06-2.18,5.26,1.9,8.36-1.65,17.18-7.33,23.91s-13.3,11.75-20.8,16.67l-2.72.27c-4.55-6-7.1-13.67-2.86-19.57,4.74-6.57,15.18-7.05,21.13-12.69,6.36-6,5.4-16.59-.25-23.14-3-3.5-7.08-6.09-10.26-9.46-10.87-11.57-9.16-29-6.81-44.37.74-4.81,2.79-10.84,8-11.17,8.11-.53,10.54,13.71,18.61,12.77,5.71-.67,6.68-8,6.11-13.34-.61-5.77-1.27-11.68-4-16.89s-7.9-9.65-14.07-10c-11.52-.65-18.31,11.69-22,22l-8.67,24c-1,2.69-2,5.52-4.34,7.39-5.65,4.61-15.25,0-17.47-6.69s.52-13.87,3.42-20.34c2.1-4.7,6.66-10.32,11.6-8.23,2,.87,3.28,2.88,5.27,3.84,5.62,2.71,11.1-4.64,11.06-10.57-.07-10.08-10.45-20.7-20.46-17-3.08,1.15-5.52,3.41-7.7,5.74-24.55,26.23-26.8,62.84-26.44,97.61a117,117,0,0,0-44.25,72.31q-.4-6.42-1.11-12.75c-.52-4.76-1.17-9.62-3.53-13.85-4.57-8.19-14.78-11.83-24.77-11.11-.41-6.46-1.11-12.91-2-19.31-.79-6-1.76-12.13-5.05-17.3a19.51,19.51,0,0,0-6-6l12.2-3.65c8.38-2.5,17.27-5.33,22.74-11.79,3.84-4.53,5.5-10.29,7.06-15.88q5.73-20.49,11.47-41a8.7,8.7,0,0,0,.44-4.39c-.69-2.73-3.86-4.24-6.82-4.66-7.54-1.06-15,2.69-20.84,7.3-2.89,2.26-5.57,4.76-8.31,7.18-30.8,12.92-60.66,28.45-86.06,49.29-6.32,5.19-12.62,11.12-14.64,18.74a16.1,16.1,0,0,0-.49,4.54c-3.17-.64-6.42-1.24-9.73-1.8l-.91-19.68c-.15-3.1-6.87-5.31-15-4.93s-14.65,3.19-14.5,6.3l.68,14.67c-11.33-.91-23.15-1.34-35.32-1.27l-1.08-23.37c-.15-3.1-6.87-5.31-15-4.93s-14.65,3.2-14.5,6.3l1,21.47c-.07.58-.13,1.16-.19,1.74q-3,.23-5.88.49l-1.55-33.38c-.14-3.11-6.86-5.32-15-4.94s-14.64,3.2-14.5,6.3l.54,11.56L79.35,160.35a148.33,148.33,0,0,0,.26-25.28,76.6,76.6,0,0,0-1-8.11c1.23,2.25,2.54,4.45,4,6.59a10.55,10.55,0,0,0,3.6,3.76c1.59.83,3.85.79,5-.54a4.49,4.49,0,0,0,.82-3.29c-.47-8.75-8.69-16.74-7.86-25,.63-1.36,1.23-2.73,1.78-4.11a3.66,3.66,0,0,1,3.18.68c3.36,2.36,4.7,6.4,6.75,9.84s5.94,6.7,10,5.61a7.24,7.24,0,0,0,4.91-5.6,15.55,15.55,0,0,0-.76-7.51A52.3,52.3,0,0,0,92.56,81.79q.78-4.1,1.26-8.24a8.59,8.59,0,0,0,4.93,5,12.42,12.42,0,0,0,7,.16c11-2.43,19.06-13.27,17.72-23.73-.63-4.94-4.13-10.25-9.43-10.39-7.79-.19-11.24,10-18.66,12.32l-.88-.66c0-.73,0-1.47-.08-2.21C94.11,47,92,38.54,84.89,36.16A11.21,11.21,0,0,0,73.76,38.7a9.49,9.49,0,0,0-1,1.19A74.49,74.49,0,0,0,57.74,50c-.39-2.69.92-2.74,1.47-5.19C58.38,37.6,53,31.07,45.87,28.48A10.43,10.43,0,0,0,40,27.84c-4.36,1-6.3,5.75-7.12,9.89a63.23,63.23,0,0,0-.29,23.07c.68,3.92,2,8.21,5.73,10.18a7.76,7.76,0,0,0,1.94.74,67.09,67.09,0,0,0-8,29.18,47.46,47.46,0,0,0,.15,5.18c-.28.17-.57.33-.85.51-12.68,2.07-24,9.68-31.6,19.58V444.46Zm-175.24-330.1a36.73,36.73,0,0,0,2.65,7.88c-3.15.73-6-.67-8.6-2.67Z" />
</svg>
