<svg xmlns="http://www.w3.org/2000/svg" viewBox="0 0 202.94 216.71">
  <g id="robots">
    <g id="jonas">
      <rect x="92.44" y="100.05" width="18.65" height="7.48" fill="#34465d"/>
      <path d="M82.17,107H121a3.86,3.86,0,0,1,3.86,3.86v2.45a0,0,0,0,1,0,0H78.67a0,0,0,0,1,0,0v-2.8A3.5,3.5,0,0,1,82.17,107Z" fill="#34465d"/>
      <path d="M83.62.5h35.78A5.46,5.46,0,0,1,124.86,6v7.16a0,0,0,0,1,0,0H78.67a0,0,0,0,1,0,0V5.45A5,5,0,0,1,83.62.5Z" fill="#34465d"/>
      <path d="M176.86,54.21a35.48,35.48,0,0,0-1.25-9.33C172.18,24.17,140.44,8,101.76,8S31.35,24.18,27.92,44.88a35.48,35.48,0,0,0-1.25,9.33h0c0,.35,0,.71,0,1.06s0,.71,0,1.07h0a35.41,35.41,0,0,0,1.25,9.32c3.43,20.71,35.16,36.93,73.84,36.93s70.42-16.22,73.85-36.93a35.41,35.41,0,0,0,1.25-9.32h0c0-.36,0-.71,0-1.07s0-.71,0-1.06Z" fill="#bad5e8"/>
      <rect x="166.22" y="127.58" width="13.43" height="64.02" transform="translate(-35.25 49.88) rotate(-14.91)" fill="#34465d"/>
      <rect x="23.29" y="127.58" width="13.43" height="64.02" transform="matrix(-0.97, -0.26, 0.26, -0.97, 17.92, 321.53)" fill="#34465d"/>
      <path d="M11.57,50.35H39.5a4.26,4.26,0,0,1,4.26,4.26V60.2a0,0,0,0,1,0,0H7.7a0,0,0,0,1,0,0v-6A3.87,3.87,0,0,1,11.57,50.35Z" transform="translate(-29.54 81) rotate(-90)" fill="#34465d"/>
      <circle cx="158.46" cy="126.93" r="19.4" fill="#97b1c0"/>
      <circle cx="42.59" cy="126.93" r="19.4" fill="#97b1c0"/>
      <path d="M159.83,50.12h36.06a0,0,0,0,1,0,0v5.59A4.26,4.26,0,0,1,191.63,60H163.7a3.87,3.87,0,0,1-3.87-3.87v-6A0,0,0,0,1,159.83,50.12Z" transform="translate(122.82 232.91) rotate(-90)" fill="#34465d"/>
      <rect x="71" y="187.61" width="61.52" height="29.1" fill="#34465d"/>
      <path d="M64,110.11h75.54a25.49,25.49,0,0,1,25.49,25.49V147a47.44,47.44,0,0,1-47.44,47.44H85.9A47.44,47.44,0,0,1,38.46,147V135.69A25.58,25.58,0,0,1,64,110.11Z" fill="#bad5e8"/>
      <g>
        <path d="M195.45,188.87c-1.25-4.68-5.17-7.69-8.9-6.83l-13.5,3.12c-3.72.86-5.93,5.27-5,10l4.15,21.54h30.68Z" fill="#bad5e8"/>
        <path d="M35.26,193.84c.92-4.75-1.29-9.16-5-10l-13.5-3.11c-3.73-.87-7.66,2.15-8.9,6.83L.07,216.71H30.84Z" fill="#bad5e8"/>
      </g>
      <text transform="translate(57.99 157.95)" font-size="24.66" fill="#34465d" font-family="ROBO">JONAS</text>
      <rect x="83.44" y="165.97" width="36.64" height="18.72" rx="1.68" fill="#d2e5f3"/>
      <circle cx="112.31" cy="172.28" r="2.74" fill="#63b6b4"/>
      <circle cx="112.31" cy="178.39" r="2.74" fill="#f7931e"/>
      <rect x="88.7" y="170.34" width="16.87" height="1.87" fill="#34465d"/>
      <rect x="88.7" y="174.14" width="16.87" height="1.87" fill="#34465d"/>
      <rect x="88.7" y="177.85" width="16.87" height="1.87" fill="#34465d"/>
      <rect id="eye_display" x="52.64" y="29.9" width="97.94" height="50.29" rx="19.63" fill="#1a2136"/>
    </g>
  </g>
</svg>
