<svg xmlns="http://www.w3.org/2000/svg" viewBox="0 0 202.94 216.71">
  <g id="robots">
    <g id="dannie_pouring">
      <ellipse id="handle" cx="107.28" cy="105.99" rx="6.03" ry="22.74" transform="translate(-26.3 36) rotate(-17)" fill="#231f20"/>
      <rect x="90.15" y="99.8" width="18.65" height="7.48" fill="#34465d"/>
      <path d="M79.89,106.71h38.83a3.86,3.86,0,0,1,3.86,3.86V113a0,0,0,0,1,0,0H76.38a0,0,0,0,1,0,0v-2.8A3.5,3.5,0,0,1,79.89,106.71Z" fill="#34465d"/>
      <path d="M81.34.25h35.78a5.46,5.46,0,0,1,5.46,5.46v7.16a0,0,0,0,1,0,0H76.38a0,0,0,0,1,0,0V5.21A5,5,0,0,1,81.34.25Z" fill="#34465d"/>
      <path d="M174.58,54a35.49,35.49,0,0,0-1.26-9.33C169.89,23.93,138.16,7.7,99.48,7.7S29.06,23.93,25.64,44.63A35.49,35.49,0,0,0,24.38,54h0c0,.36,0,.71,0,1.06s0,.71,0,1.07h0a35.41,35.41,0,0,0,1.26,9.32c3.42,20.71,35.16,36.94,73.84,36.94s70.41-16.23,73.84-36.94a35.41,35.41,0,0,0,1.26-9.32h0c0-.36,0-.71,0-1.07s0-.7,0-1.06Z" fill="#bad5e8"/>
      <path d="M9.28,50.1H37.22a4.26,4.26,0,0,1,4.26,4.26v5.59a0,0,0,0,1,0,0H5.41a0,0,0,0,1,0,0V54A3.87,3.87,0,0,1,9.28,50.1Z" transform="translate(-31.58 78.47) rotate(-90)" fill="#34465d"/>
      <circle cx="166.77" cy="125.39" r="19.4" fill="#97b1c0"/>
      <path d="M157.54,49.87h36.06a0,0,0,0,1,0,0v5.59a4.26,4.26,0,0,1-4.26,4.26H161.41a3.87,3.87,0,0,1-3.87-3.87v-6A0,0,0,0,1,157.54,49.87Z" transform="translate(120.78 230.37) rotate(-90)" fill="#34465d"/>
      <rect x="68.72" y="187.36" width="61.52" height="29.1" fill="#34465d"/>
      <path d="M61.76,109.86H137.3a25.49,25.49,0,0,1,25.49,25.49v11.39a47.44,47.44,0,0,1-47.44,47.44H83.62a47.44,47.44,0,0,1-47.44-47.44V135.45A25.58,25.58,0,0,1,61.76,109.86Z" fill="#bad5e8"/>
      <text transform="translate(59.7 157.7)" font-size="24.66" fill="#34465d" font-family="ROBO"><tspan letter-spacing="-0.13em">D</tspan><tspan x="14.77" y="0">annie</tspan></text>
      <rect x="81.16" y="165.73" width="36.64" height="18.72" rx="1.68" fill="#d2e5f3"/>
      <circle cx="110.02" cy="172.03" r="2.74" fill="#63b6b4"/>
      <circle cx="110.02" cy="178.14" r="2.74" fill="#f7931e"/>
      <rect x="86.42" y="170.09" width="16.87" height="1.87" fill="#34465d"/>
      <rect x="86.42" y="173.9" width="16.87" height="1.87" fill="#34465d"/>
      <rect x="86.42" y="177.6" width="16.87" height="1.87" fill="#34465d"/>
      <circle cx="36.17" cy="126.68" r="19.4" fill="#97b1c0"/>
      <path d="M99.83,115.43l-4-12.84L34.69,121.47l0,.11a6.67,6.67,0,0,0,4,12.71l0,0Z" fill="#34465d"/>
      <path id="handle-2" data-name="handle" d="M113.05,103.35c3.67,12,1.7,13.17-1.48,14.14s-6.38,1.39-10-10.62-4.07-22.53-.88-23.5S109.38,91.34,113.05,103.35Z" fill="#231f20"/>
      <path d="M118.44,108.93c0,9.15-3.43,9.1-12.58,9.1s-16.53.4-16.53-8.75,7.3-16,16.44-16S118.44,99.78,118.44,108.93Z" fill="#97b1c0"/>
      <g>
        <ellipse cx="117.02" cy="136.94" rx="15.06" ry="3.62" transform="translate(-34.93 40.2) rotate(-17)" fill="none" stroke="#34465d" stroke-miterlimit="10" stroke-width="0.5"/>
        <path d="M102.61,141.35,115,182c1.17,3.82,8.36,4.25,16.31,1.82S145,177,143.85,173.2l-12.43-40.66" fill="none" stroke="#34465d" stroke-miterlimit="10" stroke-width="0.5"/>
        <path d="M118.54,142.1c-7.27,2.22-12.74,5.44-12.2,7.18l10.24,33.51c.53,1.74,7.15,2.12,14.42-.1s12.45-6.21,11.92-8l-10.24-33.5C132.14,139.49,125.81,139.88,118.54,142.1Z" fill="#ffb444"/>
        <path d="M111.75,116.56s6.5,7.29,11.56,26l-7.73,3s-1.51-18.91-7.49-27.51Z" fill="#ffb444"/>
      </g>
      <circle cx="136.22" cy="161.15" r="15.07" fill="#97b1c0"/>
      <path d="M70.73,102.31c-4.68,1.24-7.69,5.17-6.83,8.9L67,124.71c.86,3.72,5.27,5.93,10,5l21.53-4.16V94.88Z" fill="#bad5e8" stroke="#34465d" stroke-miterlimit="10" stroke-width="0.5"/>
      <path d="M178.7,127.54l-.07,0a6.69,6.69,0,0,0-12.28-4.78l-.16-.06L154.77,152l12.51,4.88,10.83-27.81a6.56,6.56,0,0,0,.37-1Z" fill="#34465d"/>
      <path d="M170.16,157.48c4-2.72,5.56-7.42,3.52-10.65l-7.39-11.72c-2-3.23-6.93-3.87-11.1-1.44l-19,11,10.1,29Z" fill="#bad5e8" stroke="#34465d" stroke-miterlimit="10" stroke-width="0.5"/>
      <rect id="eye_display" x="50.35" y="29.65" width="97.94" height="50.29" rx="19.63" fill="#1a2136"/>
    </g>
  </g>
</svg>
