<svg id="tray_path" xmlns="http://www.w3.org/2000/svg" viewBox="0 0 1447.28 617.41">
  <path id="path" d="M718.31,450.58c61.63-89.37,170.28-133.06,275.43-160s215.45-42.9,309.74-96.69c17.34-9.9,35-22.23,42-40.92,9.49-25.29-4.06-54.11-23.73-72.62-40.42-38-100.45-44.09-155.79-48.19L874.37,10.54c-58.29-4.32-116.64-8.64-175.09-9C525.41.39,261.53,54.78,189.88,98.15c-31.57,19.1-74.16,49.53-97.31,73.87C49.92,216.86,27.29,240.7,11.51,300.54c-10.1,38.3-15.87,79.94-1.33,116.78s47.14,63.27,81.34,83c80.25,46.33,174.37,63.83,267,66.44s185-8.87,277.31-16.75c271.6-23.19,549.57-14.63,810,65.86" fill="none"/>
</svg>
