<svg width="167" height="138" viewBox="0 0 167 138" fill="none" xmlns="http://www.w3.org/2000/svg">
<g filter="url(#filter0_f)">
<path fill-rule="evenodd" clip-rule="evenodd" d="M106.663 85C106.663 85 115.569 89.7295 112.942 102.602L112.929 102.612L112.931 102.352L110.72 102.335C110.106 102.331 109.549 103.028 109.543 103.808L109.539 104.509L108.126 104.498C107.806 104.496 107.438 104.786 107.344 105.169C107.015 104.515 106.215 104.06 104.74 103.222L104.74 103.222L104.74 103.222C104.447 103.056 104.126 102.874 103.778 102.672C101.147 101.171 99.1714 102.715 99.1714 102.715C99.1714 102.715 99.471 103.888 100.275 105.153C97.4875 105.822 96 108.377 96 108.377C96 108.377 97.4567 110.96 100.24 111.673C99.4571 112.894 99.1551 114.014 99.1551 114.014C99.1551 114.014 101.109 115.745 103.761 114.13C104.112 113.934 104.435 113.757 104.73 113.595L104.731 113.595C106.178 112.801 106.981 112.361 107.334 111.739C107.459 112.11 107.783 112.446 108.071 112.448L109.484 112.459L109.479 113.161C109.474 113.94 109.961 114.568 110.575 114.572L112.848 114.512L112.848 114.407L112.861 114.418C115.311 127.329 106.341 131.923 106.341 131.923C106.341 131.923 106.438 131.923 106.619 131.919C106.4 131.975 106.279 132 106.279 132C106.279 132 116.432 132.077 121.556 125.608C122.829 124.027 123.799 122.049 124.241 119.576C127.724 120.393 131.642 120.868 135.773 120.922C145.127 120.949 152.083 117.142 156.381 113.801C158.869 111.877 160.459 110.106 161.119 109.314C161.513 109.041 161.713 108.881 161.713 108.881C161.713 108.881 161.517 108.718 161.128 108.44C159.366 106.246 150.753 96.5596 135.941 96.447C131.81 96.4381 127.886 96.8531 124.392 97.6167C123.986 95.146 123.047 93.159 121.802 91.5612C116.786 85.0769 106.663 85 106.663 85Z" fill="#071D37" fill-opacity="0.65"/>
</g>
<path d="M13.9422 44.9404C24.7783 45.0293 26.6813 44.016 26.6256 52.59C26.5699 61.164 24.8169 59.9492 13.8442 60.0306C5.71705 59.9639 1.43158 52.3832 1.43158 52.3832C1.43158 52.3832 5.81504 44.8737 13.9422 44.9404Z" fill="#FF9D27"/>
<path d="M18.5491 65.0403C26.4353 60.6457 27.79 60.6568 26.4754 54.4716C25.1607 48.2863 23.9315 49.8199 16.1796 54.387C10.3333 57.5978 8.38991 64.7854 8.38991 64.7854C8.38991 64.7854 12.7005 68.594 18.5491 65.0403" fill="#FF9D27"/>
<path d="M20.7894 54.4265C25.1404 52.0586 25.8235 51.2064 26.4784 54.4696C27.2675 57.9054 26.4547 57.8992 22.1038 60.2671C18.9754 62.1297 16.4148 60.2239 16.4148 60.2239C16.4148 60.2239 17.5244 56.4596 20.7894 54.4265Z" fill="#FDF516"/>
<path d="M26.3689 50.5233C27.7659 44.3602 26.4114 44.35 18.5859 39.8319C12.7839 36.5296 8.42583 39.9264 8.42583 39.9264C8.42583 39.9264 10.2726 47.1429 16.0746 50.4452C23.9001 54.9632 25.1085 56.5158 26.3689 50.5233Z" fill="#FF9D27"/>
<path d="M20.6824 50.4803C25.0007 52.9162 25.6723 53.7791 26.3706 50.527C27.2055 47.1045 26.3929 47.0978 22.0746 44.6618C18.9719 42.7503 16.3864 44.6152 16.3864 44.6152C16.3864 44.6152 17.5797 48.5687 20.6824 50.4803Z" fill="#FDF516"/>
<path d="M19.4765 48.2428C25.4363 48.2918 26.5244 47.6147 26.4932 52.4162C26.462 57.2176 25.3829 56.5228 19.423 56.4739C14.8177 56.436 12.5428 52.1302 12.5428 52.1302C12.5428 52.1302 15.0055 48.3776 19.4765 48.2428" fill="#FDF516"/>
<path d="M38.7702 39.8142C44.6552 11.3916 24.9501 0.952875 24.9501 0.952875C24.9501 0.952875 64.7729 1.25483 64.5391 35.2079L38.7702 39.8142Z" fill="#3BAACF"/>
<path d="M55.736 34.9696L64.4049 35.0354C64.7729 1.25485 24.9501 0.952862 24.9501 0.952862C24.9501 0.952862 54.8412 7.52462 55.736 34.9696" fill="#428BC1"/>
<path d="M38.5929 65.5367C44.0859 94.0455 24.2391 104.184 24.2391 104.184C24.2391 104.184 64.062 104.486 64.2957 70.5333L38.5929 65.5367Z" fill="#3BAACF"/>
<path d="M55.491 70.638L64.1599 70.7037C63.9261 104.657 24.1033 104.355 24.1033 104.355C24.1033 104.355 54.2185 98.0666 55.491 70.638" fill="#428BC1"/>
<path d="M89.1538 79.9816C57.5947 79.5708 31.6659 68.0559 31.7722 52.6227C31.8784 37.1895 57.9631 26.069 89.5245 26.1368C126.367 26.4162 145.823 53.4875 145.823 53.4875C145.823 53.4875 125.862 80.0884 89.1538 79.9816" fill="#C5D0D8"/>
<path d="M89.6359 69.181C58.2111 68.9427 32.2515 61.8863 32.3153 52.6263C32.379 43.3664 58.433 36.7044 89.8578 36.9427C126.701 37.2221 146.366 53.4912 146.366 53.4912C146.366 53.4912 126.479 69.4603 89.6359 69.181Z" fill="#DAE3EA"/>
<path d="M33.5769 66.0129C32.2223 66.0026 31.1482 64.6225 31.16 62.9077L31.3016 42.3301C31.3134 40.6153 32.5431 39.0812 33.8977 39.0915L38.7739 39.1285L38.5898 65.8794L33.5769 66.0129Z" fill="#C94747"/>
<path d="M33.7539 60.012C32.3994 60.0017 31.3205 59.3076 31.3276 58.2787L31.4078 46.6181C31.4149 45.5892 32.5033 44.9115 33.8578 44.9217L38.734 44.9587L38.6301 60.049L33.7539 60.012" fill="#F15744"/>
<path d="M28.056 61.3402C27.2432 61.3341 26.3034 60.1265 26.3104 59.0976L26.4025 45.7222C26.4096 44.6933 27.3637 43.8431 28.1764 43.8493L31.4272 43.8739L31.3068 61.3649L28.056 61.3402" fill="#3E4347"/>
<path d="M28.0746 58.5965C27.2619 58.5903 26.3197 57.7257 26.3244 57.0398L26.3881 47.7799C26.3928 47.094 27.2103 46.4142 28.1573 46.5929L31.4081 46.6175L31.3255 58.6211L28.0746 58.5965Z" fill="#62727A"/>
<path d="M145.824 53.4875C145.824 53.4875 138.846 43.8312 125.219 36.0108L124.98 70.6498C138.714 63.037 145.824 53.4875 145.824 53.4875Z" fill="#C94747"/>
<path d="M145.824 53.4867C145.824 53.4867 138.82 47.603 125.037 42.6968L124.891 63.9603C138.74 59.2636 145.824 53.4867 145.824 53.4867Z" fill="#F15744"/>
<defs>
<filter id="filter0_f" x="91" y="80" width="75.713" height="57" filterUnits="userSpaceOnUse" color-interpolation-filters="sRGB">
<feFlood flood-opacity="0" result="BackgroundImageFix"/>
<feBlend mode="normal" in="SourceGraphic" in2="BackgroundImageFix" result="shape"/>
<feGaussianBlur stdDeviation="2.5" result="effect1_foregroundBlur"/>
</filter>
</defs>
</svg>
