<svg width="149" height="106" viewBox="0 0 149 106" fill="none" xmlns="http://www.w3.org/2000/svg">
<path d="M14.1139 45.5913C25.083 45.6813 27.0094 44.6529 26.9529 53.354C26.8964 62.055 25.1219 60.8222 14.0145 60.9051C5.7877 60.8376 1.44976 53.1447 1.44976 53.1447C1.44976 53.1447 5.88711 45.5237 14.1139 45.5913Z" fill="#FF9D27"/>
<path d="M18.7776 65.9893C26.7606 61.5294 28.1319 61.5407 26.8013 55.2639C25.4706 48.9871 24.2263 50.5433 16.3793 55.1783C10.4612 58.4367 8.49388 65.7308 8.49388 65.7308C8.49388 65.7308 12.8572 69.5958 18.7776 65.9893" fill="#FF9D27"/>
<path d="M21.0443 55.2177C25.4487 52.8148 26.1402 51.9499 26.8031 55.2615C27.6018 58.7482 26.7792 58.7419 22.3748 61.1448C19.208 63.0351 16.616 61.1011 16.616 61.1011C16.616 61.1011 17.7392 57.281 21.0443 55.2177Z" fill="#FDF516"/>
<path d="M26.6929 51.2569C28.1071 45.0026 26.7359 44.9922 18.8144 40.4072C12.9412 37.056 8.52968 40.5031 8.52968 40.5031C8.52968 40.5031 10.3991 47.8265 16.2723 51.1777C24.1938 55.7627 25.4171 57.3383 26.6929 51.2569Z" fill="#FF9D27"/>
<path d="M20.9358 51.213C25.3071 53.685 25.9869 54.5606 26.6938 51.2603C27.539 47.7871 26.7164 47.7803 22.3452 45.3084C19.2044 43.3685 16.5872 45.2611 16.5872 45.2611C16.5872 45.2611 17.795 49.2732 20.9358 51.213Z" fill="#FDF516"/>
<path d="M19.7155 48.9426C25.7485 48.9921 26.8499 48.305 26.8182 53.1776C26.7866 58.0501 25.6942 57.3451 19.6612 57.2955C14.9994 57.2573 12.6967 52.8876 12.6967 52.8876C12.6967 52.8876 15.1896 49.0795 19.7155 48.9426" fill="#FDF516"/>
<path d="M39.2452 40.3892C45.2024 11.5455 25.2555 0.952124 25.2555 0.952124C25.2555 0.952124 65.567 1.25856 65.3303 35.7146L39.2452 40.3892Z" fill="#3BAACF"/>
<path d="M56.4191 35.4728L65.1944 35.5396C65.5669 1.25856 25.2555 0.952109 25.2555 0.952109C25.2555 0.952109 55.5134 7.62123 56.4191 35.4728" fill="#428BC1"/>
<path d="M39.0665 66.4927C44.6269 95.4239 24.5366 105.713 24.5366 105.713C24.5366 105.713 64.8481 106.019 65.0847 71.5633L39.0665 66.4927Z" fill="#3BAACF"/>
<path d="M56.1717 71.6693L64.947 71.736C64.7104 106.192 24.3989 105.886 24.3989 105.886C24.3989 105.886 54.8836 99.5043 56.1717 71.6693" fill="#428BC1"/>
<path d="M90.2484 81.1515C58.302 80.7346 32.0551 69.0492 32.1626 53.3873C32.2702 37.7255 58.6749 26.4402 90.6236 26.5091C127.919 26.7926 147.612 54.2649 147.612 54.2649C147.612 54.2649 127.407 81.2599 90.2484 81.1515" fill="#C5D0D8"/>
<path d="M90.7352 70.1908C58.9248 69.949 32.6467 62.788 32.7113 53.3909C32.7758 43.9938 59.1495 37.2331 90.9599 37.4749C128.255 37.7584 148.161 54.2685 148.161 54.2685C148.161 54.2685 128.03 70.4743 90.7352 70.1908Z" fill="#DAE3EA"/>
<path d="M33.9894 66.976C32.6182 66.9656 31.5309 65.5651 31.5428 63.8249L31.6862 42.9424C31.6982 41.2022 32.9429 39.6454 34.3141 39.6558L39.2502 39.6934L39.0638 66.8406L33.9894 66.976Z" fill="#C94747"/>
<path d="M34.1679 60.8861C32.7967 60.8757 31.7046 60.1713 31.7118 59.1272L31.793 47.2938C31.8002 46.2497 32.9019 45.5619 34.273 45.5723L39.2091 45.6099L39.104 60.9237L34.1679 60.8861" fill="#F15744"/>
<path d="M28.4003 62.234C27.5776 62.2278 26.6262 61.0023 26.6334 59.9582L26.7266 46.3846C26.7338 45.3405 27.6995 44.4777 28.5222 44.4839L31.813 44.5089L31.6911 62.259L28.4003 62.234" fill="#3E4347"/>
<path d="M28.4195 59.4496C27.5968 59.4434 26.643 58.566 26.6477 57.8699L26.7123 48.4728C26.717 47.7767 27.5445 47.0869 28.5031 47.2682L31.7938 47.2932L31.7102 59.4746L28.4195 59.4496Z" fill="#62727A"/>
<path d="M147.613 54.2648C147.613 54.2648 140.55 44.4654 126.755 36.5292L126.514 71.6814C140.416 63.9557 147.613 54.2648 147.613 54.2648Z" fill="#C94747"/>
<path d="M147.613 54.2642C147.613 54.2642 140.524 48.2933 126.571 43.3144L126.423 64.893C140.442 60.1267 147.613 54.2642 147.613 54.2642Z" fill="#F15744"/>
</svg>
