<svg id="Layer_1" data-name="Layer 1" xmlns="http://www.w3.org/2000/svg" viewBox="0 0 282.8 253.26"><defs><style>.cls-1{fill:#f2f2f2;}.cls-2{fill:#e3e3e5;}.cls-3{fill:#e9e9e9;}.cls-4{opacity:0.15;}.cls-5{fill:#939598;}.cls-10,.cls-6,.cls-8,.cls-9{fill:none;stroke:#3a506b;}.cls-10,.cls-6,.cls-9{stroke-miterlimit:10;}.cls-6{stroke-width:2px;}.cls-7{fill:#3a506b;}.cls-10,.cls-8,.cls-9{stroke-linecap:round;}.cls-8{stroke-linejoin:round;stroke-width:3px;}.cls-9{stroke-width:6px;}.cls-10{stroke-width:4px;}</style></defs><path class="cls-1" d="M380,236.71a42.83,42.83,0,0,1-32.74,41.53.58.58,0,0,0-.18,0c-.65.17-1.31.31-2,.43s-1.31.25-2,.35a37.63,37.63,0,0,1-4.35.41c-.51,0-1,.06-1.49.06h-.59a39,39,0,0,1-4.2-.23,32.12,32.12,0,0,1-3.78-.53c-.55-.1-1.08-.22-1.61-.35s-1-.24-1.57-.38l-1.55-.45a43.41,43.41,0,0,1-16.37-9.47.7.7,0,0,1-.19-.14l1-.88.12-.12.83-.72,2.84-2.43.72-.61,7.16-6.12L330.71,248h0l6.47-5.54h-43a40.16,40.16,0,0,1-.39-5.73,43.14,43.14,0,0,1,81.94-18.57,29.87,29.87,0,0,1,1.21,2.86c.29.75.56,1.52.81,2.3A41.68,41.68,0,0,1,380,236.71Z" transform="translate(-97.16 -193.87)"/><ellipse class="cls-2" cx="239.71" cy="26.66" rx="15.11" ry="14.59"/><ellipse class="cls-3" cx="239.37" cy="25.58" rx="15.11" ry="14.59"/><ellipse class="cls-2" cx="308.03" cy="225.09" rx="7.3" ry="4.43" transform="translate(-95.3 258.82) rotate(-72.78)"/><ellipse class="cls-3" cx="308.39" cy="225.49" rx="7.3" ry="4.43" transform="translate(-95.43 259.45) rotate(-72.78)"/><ellipse class="cls-2" cx="338.69" cy="263.12" rx="7.74" ry="7.19" transform="translate(-165.65 -65.44) rotate(-19.54)"/><ellipse class="cls-3" cx="338.55" cy="262.58" rx="7.74" ry="7.19" transform="translate(-165.48 -65.52) rotate(-19.54)"/><ellipse class="cls-2" cx="364.02" cy="245.54" rx="8.65" ry="5.38" transform="translate(-58 347.07) rotate(-76.28)"/><ellipse class="cls-3" cx="363.54" cy="245.1" rx="8.65" ry="5.38" transform="translate(-57.93 346.27) rotate(-76.28)"/><ellipse class="cls-2" cx="364.04" cy="222.21" rx="6.41" ry="5.96" transform="translate(-150.51 -59.32) rotate(-19.54)"/><ellipse class="cls-3" cx="363.92" cy="221.76" rx="6.41" ry="5.96" transform="translate(-150.37 -59.39) rotate(-19.54)"/><g class="cls-4"><path class="cls-5" d="M369.22,208.15a56.53,56.53,0,0,1-61.73,60,43.1,43.1,0,0,0,61.73-60Z" transform="translate(-97.16 -193.87)"/></g><line class="cls-6" x1="201.34" y1="82.11" x2="40.22" y2="82.11"/><polygon class="cls-7" points="40.54 82.11 120.61 82.11 200.68 82.11 160.65 116.39 120.61 150.67 80.57 116.39 40.54 82.11"/><polygon class="cls-8" points="239.71 48.69 233.24 54.22 233.22 54.22 222.61 63.34 215.44 69.47 214.73 70.08 211.89 72.51 211.06 73.22 210.93 73.34 180.16 99.69 120.6 150.65 61.05 99.69 1.5 48.69 239.71 48.69"/><line class="cls-9" x1="94.69" y1="110.51" x2="60.02" y2="3.8"/><line class="cls-10" x1="120.61" y1="150.67" x2="120.61" y2="249.62"/><line class="cls-10" x1="83.17" y1="251.26" x2="158.05" y2="251.26"/></svg>